0
SECTION
2
HEADER
9
$INSUNITS
70
4
9
$ACADVER
1
AC1014
9
$HANDSEED
5
FFFF
0
ENDSEC
0
SECTION
2
TABLES
0
TABLE
2
VPORT
5
8
100
AcDbSymbolTable
0
ENDTAB
0
TABLE
2
LTYPE
5
5
100
AcDbSymbolTable
0
LTYPE
5
14
100
AcDbSymbolTableRecord
100
AcDbLinetypeTableRecord
2
BYBLOCK
70
0
0
LTYPE
5
15
100
AcDbSymbolTableRecord
100
AcDbLinetypeTableRecord
2
BYLAYER
70
0
0
ENDTAB
0
TABLE
2
LAYER
5
2
100
AcDbSymbolTable
70
2
0
LAYER
5
50
100
AcDbSymbolTableRecord
100
AcDbLayerTableRecord
2
0
70
0
6
CONTINUOUS
0
ENDTAB
0
TABLE
2
STYLE
5
3
100
AcDbSymbolTable
70
1
0
STYLE
5
11
100
AcDbSymbolTableRecord
100
AcDbTextStyleTableRecord
2
STANDARD
70
0
0
ENDTAB
0
TABLE
2
VIEW
5
6
100
AcDbSymbolTable
70
0
0
ENDTAB
0
TABLE
2
UCS
5
7
100
AcDbSymbolTable
70
0
0
ENDTAB
0
TABLE
2
APPID
5
9
100
AcDbSymbolTable
70
2
0
APPID
5
12
100
AcDbSymbolTableRecord
100
AcDbRegAppTableRecord
2
ACAD
70
0
0
ENDTAB
0
TABLE
2
DIMSTYLE
5
A
100
AcDbSymbolTable
70
1
0
ENDTAB
0
TABLE
2
BLOCK_RECORD
5
1
100
AcDbSymbolTable
70
1
0
BLOCK_RECORD
5
1F
100
AcDbSymbolTableRecord
100
AcDbBlockTableRecord
2
*MODEL_SPACE
0
BLOCK_RECORD
5
1B
100
AcDbSymbolTableRecord
100
AcDbBlockTableRecord
2
*PAPER_SPACE
0
ENDTAB
0
ENDSEC
0
SECTION
2
BLOCKS
0
BLOCK
5
20
100
AcDbEntity
100
AcDbBlockBegin
2
*MODEL_SPACE
0
ENDBLK
5
21
100
AcDbEntity
100
AcDbBlockEnd
0
BLOCK
5
1C
100
AcDbEntity
100
AcDbBlockBegin
2
*PAPER_SPACE
0
ENDBLK
5
1D
100
AcDbEntity
100
AcDbBlockEnd
0
ENDSEC
0
SECTION
2
ENTITIES
0
CIRCLE
5
100
100
AcDbEntity
8
0
100
AcDbCircle
10
173.20508075688787
20
99.999999999999829
30
0
40
16.906348518239511
0
CIRCLE
5
101
100
AcDbEntity
8
0
100
AcDbCircle
10
-173.20508075688764
20
100.00000000000017
30
0
40
16.906348518239511
0
CIRCLE
5
102
100
AcDbEntity
8
0
100
AcDbCircle
10
-2.4868995751603507e-13
20
-200
30
0
40
16.906348518239511
0
CIRCLE
5
103
100
AcDbEntity
8
0
100
AcDbCircle
10
2.6645352591003757e-13
20
200
30
0
40
16.906348518239511
0
CIRCLE
5
104
100
AcDbEntity
8
0
100
AcDbCircle
10
-200
20
1.9539925233402755e-13
30
0
40
16.906348518239511
0
CIRCLE
5
105
100
AcDbEntity
8
0
100
AcDbCircle
10
0
20
0
30
0
40
136.52500000000001
0
CIRCLE
5
106
100
AcDbEntity
8
0
100
AcDbCircle
10
-58.952261942788802
20
220.67794624880543
30
0
40
3.1749999999999901
0
CIRCLE
5
107
100
AcDbEntity
8
0
100
AcDbCircle
10
59.284816671393102
20
220.58883847783676
30
0
40
3.1749999999999901
0
CIRCLE
5
108
100
AcDbEntity
8
0
100
AcDbCircle
10
161.63657653504794
20
161.39312957741242
30
0
40
3.1749999999999901
0
CIRCLE
5
109
100
AcDbEntity
8
0
100
AcDbCircle
10
220.67794624880548
20
58.95226194278878
30
0
40
3.1749999999999901
0
CIRCLE
5
110
100
AcDbEntity
8
0
100
AcDbCircle
10
220.58883847783679
20
-59.284816671393003
30
0
40
3.1749999999999901
0
CIRCLE
5
111
100
AcDbEntity
8
0
100
AcDbCircle
10
161.39312957741242
20
-161.63657653504794
30
0
40
3.1749999999999901
0
CIRCLE
5
112
100
AcDbEntity
8
0
100
AcDbCircle
10
58.952261942788823
20
-220.67794624880543
30
0
40
3.1749999999999901
0
CIRCLE
5
113
100
AcDbEntity
8
0
100
AcDbCircle
10
-59.284816671393003
20
-220.58883847783679
30
0
40
3.1749999999999901
0
CIRCLE
5
114
100
AcDbEntity
8
0
100
AcDbCircle
10
-161.63657653504794
20
-161.39312957741242
30
0
40
3.1749999999999901
0
CIRCLE
5
115
100
AcDbEntity
8
0
100
AcDbCircle
10
-220.67794624880543
20
-58.952261942788894
30
0
40
3.1749999999999901
0
CIRCLE
5
116
100
AcDbEntity
8
0
100
AcDbCircle
10
-220.58883847783679
20
59.28481667139296
30
0
40
3.1749999999999901
0
CIRCLE
5
117
100
AcDbEntity
8
0
100
AcDbCircle
10
-161.39312957741248
20
161.63657653504788
30
0
40
3.1749999999999901
0
CIRCLE
5
118
100
AcDbEntity
8
0
100
AcDbCircle
10
-99.999999999999858
20
173.20508075688781
30
0
40
16.906348518239511
0
CIRCLE
5
119
100
AcDbEntity
8
0
100
AcDbCircle
10
-173.20508075688787
20
-99.999999999999829
30
0
40
16.906348518239511
0
CIRCLE
5
120
100
AcDbEntity
8
0
100
AcDbCircle
10
-86.032770900349135
20
114.86288535122236
30
0
40
2.5526999999999944
0
CIRCLE
5
121
100
AcDbEntity
8
0
100
AcDbCircle
10
142.49056211631259
20
17.075122482057829
30
0
40
2.5526999999999944
0
CIRCLE
5
122
100
AcDbEntity
8
0
100
AcDbCircle
10
-142.49056211631259
20
-17.075122482057811
30
0
40
2.5526999999999944
0
CIRCLE
5
123
100
AcDbEntity
8
0
100
AcDbCircle
10
-100.0000000000002
20
-173.20508075688764
30
0
40
16.906348518239511
0
CIRCLE
5
124
100
AcDbEntity
8
0
100
AcDbCircle
10
99.999999999999844
20
-173.20508075688781
30
0
40
16.906348518239511
0
CIRCLE
5
125
100
AcDbEntity
8
0
100
AcDbCircle
10
100.00000000000028
20
173.20508075688758
30
0
40
16.906348518239511
0
CIRCLE
5
126
100
AcDbEntity
8
0
100
AcDbCircle
10
200.00000000000003
20
-2.8421709430404007e-13
30
0
40
16.906348518239511
0
CIRCLE
5
127
100
AcDbEntity
8
0
100
AcDbCircle
10
56.457791215963425
20
131.93800783328015
30
0
40
2.5527000000000033
0
CIRCLE
5
128
100
AcDbEntity
8
0
100
AcDbCircle
10
86.032770900349078
20
-114.86288535122239
30
0
40
2.5526999999999944
0
CIRCLE
5
129
100
AcDbEntity
8
0
100
AcDbCircle
10
-56.45779121596351
20
-131.93800783328012
30
0
40
2.5527000000000033
0
CIRCLE
5
130
100
AcDbEntity
8
0
100
AcDbCircle
10
173.20508075688764
20
-100.0000000000002
30
0
40
16.906348518239511
0
CIRCLE
5
131
100
AcDbEntity
8
0
100
AcDbCircle
10
0
20
0
30
0
40
250
0
ENDSEC
0
SECTION
2
OBJECTS
0
DICTIONARY
5
C
100
AcDbDictionary
3
ACAD_GROUP
350
D
3
ACAD_MLINESTYLE
350
17
0
DICTIONARY
5
D
100
AcDbDictionary
0
DICTIONARY
5
1A
330
C
100
AcDbDictionary
0
DICTIONARY
5
17
100
AcDbDictionary
0
ENDSEC
0
EOF
