0
SECTION
2
HEADER
9
$INSUNITS
70
4
9
$ACADVER
1
AC1014
9
$HANDSEED
5
FFFF
0
ENDSEC
0
SECTION
2
TABLES
0
TABLE
2
VPORT
5
8
100
AcDbSymbolTable
0
ENDTAB
0
TABLE
2
LTYPE
5
5
100
AcDbSymbolTable
0
LTYPE
5
14
100
AcDbSymbolTableRecord
100
AcDbLinetypeTableRecord
2
BYBLOCK
70
0
0
LTYPE
5
15
100
AcDbSymbolTableRecord
100
AcDbLinetypeTableRecord
2
BYLAYER
70
0
0
ENDTAB
0
TABLE
2
LAYER
5
2
100
AcDbSymbolTable
70
2
0
LAYER
5
50
100
AcDbSymbolTableRecord
100
AcDbLayerTableRecord
2
0
70
0
6
CONTINUOUS
0
ENDTAB
0
TABLE
2
STYLE
5
3
100
AcDbSymbolTable
70
1
0
STYLE
5
11
100
AcDbSymbolTableRecord
100
AcDbTextStyleTableRecord
2
STANDARD
70
0
0
ENDTAB
0
TABLE
2
VIEW
5
6
100
AcDbSymbolTable
70
0
0
ENDTAB
0
TABLE
2
UCS
5
7
100
AcDbSymbolTable
70
0
0
ENDTAB
0
TABLE
2
APPID
5
9
100
AcDbSymbolTable
70
2
0
APPID
5
12
100
AcDbSymbolTableRecord
100
AcDbRegAppTableRecord
2
ACAD
70
0
0
ENDTAB
0
TABLE
2
DIMSTYLE
5
A
100
AcDbSymbolTable
70
1
0
ENDTAB
0
TABLE
2
BLOCK_RECORD
5
1
100
AcDbSymbolTable
70
1
0
BLOCK_RECORD
5
1F
100
AcDbSymbolTableRecord
100
AcDbBlockTableRecord
2
*MODEL_SPACE
0
BLOCK_RECORD
5
1B
100
AcDbSymbolTableRecord
100
AcDbBlockTableRecord
2
*PAPER_SPACE
0
ENDTAB
0
ENDSEC
0
SECTION
2
BLOCKS
0
BLOCK
5
20
100
AcDbEntity
100
AcDbBlockBegin
2
*MODEL_SPACE
0
ENDBLK
5
21
100
AcDbEntity
100
AcDbBlockEnd
0
BLOCK
5
1C
100
AcDbEntity
100
AcDbBlockBegin
2
*PAPER_SPACE
0
ENDBLK
5
1D
100
AcDbEntity
100
AcDbBlockEnd
0
ENDSEC
0
SECTION
2
ENTITIES
0
CIRCLE
5
100
100
AcDbEntity
8
0
100
AcDbCircle
10
-66.394303661624576
20
330.19999999999993
30
0
40
2.5
0
CIRCLE
5
101
100
AcDbEntity
8
0
100
AcDbCircle
10
393.70000000000005
20
-183.46060502084498
30
0
40
2.5
0
CIRCLE
5
102
100
AcDbEntity
8
0
100
AcDbCircle
10
-346.39430366162452
20
330.19999999999993
30
0
40
2.5
0
CIRCLE
5
103
100
AcDbEntity
8
0
100
AcDbCircle
10
393.70000000000005
20
36.539394979155055
30
0
40
2.5
0
CIRCLE
5
104
100
AcDbEntity
8
0
100
AcDbCircle
10
73.605696338375282
20
-330.19999999999993
30
0
40
2.5
0
CIRCLE
5
105
100
AcDbEntity
8
0
100
AcDbCircle
10
213.60569633837528
20
330.19999999999993
30
0
40
2.5
0
CIRCLE
5
106
100
AcDbEntity
8
0
100
AcDbCircle
10
-346.39430366162452
20
-330.19999999999993
30
0
40
2.5
0
CIRCLE
5
107
100
AcDbEntity
8
0
100
AcDbCircle
10
393.70000000000005
20
-293.46060502084498
30
0
40
2.5
0
CIRCLE
5
108
100
AcDbEntity
8
0
100
AcDbCircle
10
393.70000000000005
20
146.53939497915505
30
0
40
2.5
0
CIRCLE
5
109
100
AcDbEntity
8
0
100
AcDbCircle
10
73.605696338375282
20
330.19999999999993
30
0
40
2.5
0
CIRCLE
5
110
100
AcDbEntity
8
0
100
AcDbCircle
10
393.70000000000005
20
-73.46060502084498
30
0
40
2.5
0
CIRCLE
5
111
100
AcDbEntity
8
0
100
AcDbCircle
10
-206.39430366162458
20
-330.19999999999993
30
0
40
2.5
0
CIRCLE
5
112
100
AcDbEntity
8
0
100
AcDbCircle
10
393.70000000000005
20
256.53939497915508
30
0
40
2.5
0
CIRCLE
5
113
100
AcDbEntity
8
0
100
AcDbCircle
10
353.6056963383752
20
-330.19999999999993
30
0
40
2.5
0
CIRCLE
5
114
100
AcDbEntity
8
0
100
AcDbCircle
10
213.60569633837528
20
-330.19999999999993
30
0
40
2.5
0
CIRCLE
5
115
100
AcDbEntity
8
0
100
AcDbCircle
10
-206.39430366162458
20
330.19999999999993
30
0
40
2.5
0
CIRCLE
5
116
100
AcDbEntity
8
0
100
AcDbCircle
10
353.60569633837531
20
330.19999999999993
30
0
40
2.5
0
CIRCLE
5
117
100
AcDbEntity
8
0
100
AcDbCircle
10
-66.394303661624605
20
-330.19999999999993
30
0
40
2.5
0
CIRCLE
5
118
100
AcDbEntity
8
0
100
AcDbCircle
10
-393.70000000000005
20
256.53939497915508
30
0
40
2.5
0
CIRCLE
5
119
100
AcDbEntity
8
0
100
AcDbCircle
10
-393.70000000000005
20
36.539394979155055
30
0
40
2.5
0
CIRCLE
5
120
100
AcDbEntity
8
0
100
AcDbCircle
10
-393.70000000000005
20
-183.46060502084495
30
0
40
2.5
0
CIRCLE
5
121
100
AcDbEntity
8
0
100
AcDbCircle
10
-393.70000000000005
20
-293.46060502084492
30
0
40
2.5
0
CIRCLE
5
122
100
AcDbEntity
8
0
100
AcDbCircle
10
-393.70000000000005
20
-73.460605020844952
30
0
40
2.5
0
CIRCLE
5
123
100
AcDbEntity
8
0
100
AcDbCircle
10
-393.70000000000005
20
146.53939497915505
30
0
40
2.5
0
CIRCLE
5
124
100
AcDbEntity
8
0
100
AcDbCircle
10
0
20
-215.89999999999992
30
0
40
40.639999999999993
0
LWPOLYLINE
5
125
100
AcDbEntity
8
0
100
AcDbPolyline
90
8
70
1
43
0.0
10
-356.39999999999998
20
-342.89999999999992
10
-406.39999999999998
20
-292.89999999999992
10
-406.39999999999998
20
292.89999999999992
10
-356.39999999999998
20
342.89999999999992
10
356.39999999999998
20
342.89999999999992
10
406.39999999999998
20
292.89999999999992
10
406.39999999999998
20
-292.89999999999992
10
356.39999999999998
20
-342.89999999999992
0
ENDSEC
0
SECTION
2
OBJECTS
0
DICTIONARY
5
C
100
AcDbDictionary
3
ACAD_GROUP
350
D
3
ACAD_MLINESTYLE
350
17
0
DICTIONARY
5
D
100
AcDbDictionary
0
DICTIONARY
5
1A
330
C
100
AcDbDictionary
0
DICTIONARY
5
17
100
AcDbDictionary
0
ENDSEC
0
EOF
